<?xml version="1.0" encoding="iso-8859-1"?>
<!-- Generator: Adobe Illustrator 23.0.2, SVG Export Plug-In . SVG Version: 6.00 Build 0)  -->
<svg version="1.1" xmlns="http://www.w3.org/2000/svg" xmlns:xlink="http://www.w3.org/1999/xlink" x="0px" y="0px"
	 viewBox="0 0 64 64" style="enable-background:new 0 0 64 64;" xml:space="preserve">
<g id="_x37_">
	<path style="fill:#fff;" d="M52.151,13.141c-0.923,0-1.844,0.11-2.751,0.33c-2.713-5.587-8.335-9.139-14.614-9.139
		c-5.889,0-11.331,3.197-14.203,8.344c-0.005,0.009-0.007,0.018-0.012,0.027C12.98,14.065,7.195,20.7,7.189,28.676
		C3.146,29.158,0,32.609,0,36.78c0,4.5,3.661,8.161,8.162,8.161c0.671,0,1.215-0.544,1.215-1.215s-0.544-1.215-1.215-1.215
		c-3.16,0-5.731-2.571-5.731-5.731s2.571-5.732,5.731-5.732l0.243,0.014c0.338,0.016,0.682-0.121,0.924-0.37
		c0.241-0.25,0.364-0.591,0.337-0.937c-0.027-0.353-0.045-0.708-0.045-1.068c0-7.622,6.201-13.823,13.823-13.823
		c5.653,0,10.681,3.386,12.81,8.627c0.242,0.597,0.908,0.9,1.518,0.693c0.994-0.339,2.016-0.511,3.037-0.511
		c5.193,0,9.419,4.225,9.419,9.419s-4.225,9.419-9.419,9.419c-0.671,0-1.215,0.544-1.215,1.215s0.544,1.215,1.215,1.215
		c5.227,0,9.667-3.406,11.236-8.113c0.036,0.003,0.07,0.011,0.107,0.011C58.685,36.839,64,31.524,64,24.99
		C64,18.457,58.685,13.141,52.151,13.141z M52.583,34.387c0.046-0.426,0.074-0.857,0.074-1.295c0-6.534-5.315-11.849-11.849-11.849
		c-0.923,0-1.844,0.11-2.751,0.33c-2.687-5.534-8.229-9.066-14.436-9.133c2.585-3.537,6.724-5.678,11.164-5.678
		c5.653,0,10.681,3.386,12.81,8.627c0.243,0.597,0.909,0.9,1.518,0.693c0.994-0.339,2.016-0.511,3.037-0.511
		c5.193,0,9.419,4.225,9.419,9.418C61.569,30.038,57.575,34.159,52.583,34.387z M33.392,40.725h-5.468l4.89-6.865
		c0.264-0.37,0.299-0.858,0.091-1.262c-0.208-0.404-0.625-0.658-1.08-0.658h-8.823c-0.414,0-0.8,0.21-1.023,0.559L13.735,45.35
		c-0.24,0.373-0.256,0.849-0.044,1.239c0.213,0.389,0.622,0.632,1.067,0.632h5.14l-5.711,10.658
		c-0.279,0.521-0.142,1.169,0.324,1.533c0.22,0.172,0.484,0.256,0.747,0.256c0.294,0,0.587-0.106,0.818-0.316L34.21,42.839
		c0.371-0.338,0.496-0.87,0.315-1.337C34.344,41.034,33.894,40.725,33.392,40.725z M19.671,52.791l3.328-6.211
		c0.202-0.377,0.191-0.832-0.028-1.198s-0.616-0.591-1.043-0.591h-4.947l6.685-10.42h5.801l-4.89,6.865
		c-0.264,0.37-0.299,0.858-0.091,1.262s0.625,0.658,1.08,0.658h4.687L19.671,52.791z"/>
</g>
<g id="Layer_1">
</g>
</svg>
