<?xml version="1.0" encoding="iso-8859-1"?>
<!-- Generator: Adobe Illustrator 23.0.2, SVG Export Plug-In . SVG Version: 6.00 Build 0)  -->
<svg version="1.1" xmlns="http://www.w3.org/2000/svg" xmlns:xlink="http://www.w3.org/1999/xlink" x="0px" y="0px"
	 viewBox="0 0 64 64" style="enable-background:new 0 0 64 64;" xml:space="preserve">
<g id="_x39_">
	<path style="fill:#fff;" d="M38.014,55.077H18.515V52.46h19.499c2.098,0,3.805-1.706,3.805-3.804
		c0-2.098-1.706-3.805-3.805-3.805c-2.097,0-3.804,1.706-3.804,3.805h-2.617c0-3.541,2.88-6.422,6.421-6.422
		c3.541,0,6.422,2.881,6.422,6.422C44.436,52.197,41.555,55.077,38.014,55.077z M49.695,48.297V45.68
		c3.144,0,6.093-1.23,8.306-3.465c2.212-2.233,3.413-5.196,3.381-8.341c-0.058-5.79-4.445-10.722-10.205-11.471
		c-1.688-0.219-3.377-0.063-5.024,0.463c-0.797,0.25-1.631-0.135-1.955-0.897c-2.68-6.336-8.852-10.428-15.724-10.428
		c-9.412,0-17.071,7.658-17.071,17.07c0,0.319,0.03,0.857,0.046,1.142c0.026,0.429-0.129,0.851-0.428,1.15
		c-0.291,0.291-0.698,0.446-1.106,0.421L9.798,31.32c-2.006,0-3.867,0.807-5.239,2.27c-1.372,1.464-2.056,3.378-1.925,5.39
		c0.243,3.757,3.518,6.7,7.455,6.7h14.628c0.803,0,1.551-0.36,2.052-0.989c0.509-0.639,0.686-1.444,0.498-2.269
		c-0.213-0.932-0.983-1.702-1.915-1.915c-0.823-0.186-1.63-0.01-2.268,0.498c-0.629,0.501-0.989,1.249-0.989,2.051h-2.617
		c0-1.603,0.72-3.097,1.974-4.098c1.256-1,2.89-1.367,4.483-1.004c1.92,0.439,3.445,1.964,3.883,3.884
		c0.365,1.593-0.001,3.227-1.002,4.483c-1.001,1.255-2.495,1.975-4.099,1.975H10.089c-5.313,0-9.735-4.019-10.067-9.148
		c-0.177-2.742,0.757-5.352,2.628-7.349c1.614-1.721,3.808-2.801,6.138-3.045c-0.001-0.051-0.002-0.1-0.002-0.145
		c0-10.856,8.832-19.687,19.688-19.687c7.623,0,14.499,4.365,17.762,11.198c1.736-0.437,3.507-0.544,5.279-0.314
		c7.046,0.917,12.414,6.953,12.484,14.041c0.038,3.849-1.432,7.475-4.139,10.209C57.153,46.791,53.542,48.297,49.695,48.297z
		 M8.836,29.895c0,0.003,0.001,0.008,0.001,0.012C8.836,29.903,8.836,29.898,8.836,29.895z M10.039,28.71
		c0.007,0,0.014,0.001,0.02,0.001C10.052,28.711,10.045,28.71,10.039,28.71z"/>
</g>
<g id="Layer_1">
</g>
</svg>
